<?xml version="1.0" encoding="UTF-8" standalone="no"?>
<!-- Created with Inkscape (http://www.inkscape.org/) -->

<svg
   width="144.90596mm"
   height="147.16185mm"
   viewBox="0 0 144.90596 147.16185"
   version="1.1"
   id="svg1"
   xml:space="preserve"
   sodipodi:docname="logo.svg"
   inkscape:export-filename="../c8ad6404/favicon.ico"
   inkscape:export-xdpi="5.6091547"
   inkscape:export-ydpi="5.6091547"
   inkscape:version="1.4.2 (2aeb623e1d, 2025-05-12)"
   xmlns:inkscape="http://www.inkscape.org/namespaces/inkscape"
   xmlns:sodipodi="http://sodipodi.sourceforge.net/DTD/sodipodi-0.dtd"
   xmlns="http://www.w3.org/2000/svg"
   xmlns:svg="http://www.w3.org/2000/svg"><sodipodi:namedview
     id="namedview1"
     pagecolor="#ffffff"
     bordercolor="#000000"
     borderopacity="0.25"
     inkscape:showpageshadow="2"
     inkscape:pageopacity="0.0"
     inkscape:pagecheckerboard="0"
     inkscape:deskcolor="#d1d1d1"
     inkscape:document-units="mm"
     inkscape:zoom="1.062697"
     inkscape:cx="317.11767"
     inkscape:cy="231.48649"
     inkscape:window-width="1920"
     inkscape:window-height="1131"
     inkscape:window-x="0"
     inkscape:window-y="0"
     inkscape:window-maximized="1"
     inkscape:current-layer="svg1" /><defs
     id="defs1"><style
       id="style1">.cls-1{fill:none;stroke:#000000;stroke-linecap:round;stroke-linejoin:round;}</style><style
       id="style1-3">.cls-1{fill:none;stroke:#000000;stroke-linecap:round;stroke-linejoin:round;}</style></defs><g
     id="layer1"
     transform="matrix(0.74810763,0,0,1.0190579,-9.1843849,-76.848233)"
     style="stroke-width:25.1966;stroke-dasharray:none"><g
       id="g3"
       transform="translate(-10.369645,-47.499664)"
       style="stroke-width:25.1966;stroke-dasharray:none"><g
         id="g2"
         transform="matrix(4.4097223,0,0,4.4097223,39.958592,89.207237)"
         style="stroke-width:5.71386;stroke-dasharray:none"><path
           class="cls-1"
           d="M 21.71,10.5 A 6.74,6.74 0 0 0 15,17.25 v 0 A 6.74,6.74 0 0 0 21.71,24 H 24"
           id="path2-1"
           style="stroke-width:5.71386;stroke-dasharray:none" /><path
           class="cls-1"
           d="m 24,24 h 2.29 A 6.74,6.74 0 0 1 33,30.75 v 0 a 6.74,6.74 0 0 1 -6.73,6.75"
           id="path3"
           style="stroke-width:5.71386;stroke-dasharray:none" /><path
           class="cls-1"
           d="M 37.142085,10.499927 C 34.661364,10.499927 28.51,10.500143 24,10.5 l -2.29,-7.3e-5"
           id="path4"
           style="stroke-width:5.71386;stroke-dasharray:none" /><path
           class="cls-1"
           d="M 5.0253601,37.50004 C 7.9525161,37.50004 19.49,37.499921 24,37.5 l 2.29,4e-5"
           id="path5"
           style="stroke-width:5.71386;stroke-dasharray:none" /></g><g
         id="g1"
         transform="matrix(4.4097222,0,0,4.4097222,-40.867059,89.357558)"
         style="stroke-width:5.71386;stroke-dasharray:none"><path
           class="cls-1"
           d="m 17.26,10.5 h 13.48 v 20.25 c 4e-6,3.72402 -3.015984,6.744483 -6.74,6.75 v 0 c -3.724016,-0.0055 -6.74,-3.02598 -6.74,-6.75 v -1.893022"
           id="path2"
           style="stroke-width:5.71386;stroke-dasharray:none" /></g></g></g></svg>
